<svg xmlns="http://www.w3.org/2000/svg" viewBox="0 0 512.001 512.001"><path d="M271.029 0c-33.091 0-61 27.909-61 61s27.909 61 61 61 60-27.909 60-61-26.909-61-60-61z"/><path d="M337.621 122c-16.485 18.279-40.096 30-66.592 30-26.496 0-51.107-11.721-67.592-30-14.392 15.959-23.408 36.866-23.408 60v15c0 8.291 6.709 15 15 15h151c8.291 0 15-6.709 15-15v-15c0-23.134-9.016-44.041-23.408-60z"/><path d="M144.946 460.404L68.505 307.149c-7.381-14.799-25.345-20.834-40.162-13.493l-19.979 9.897c-7.439 3.689-10.466 12.73-6.753 20.156l90 180c3.701 7.423 12.704 10.377 20.083 6.738l19.722-9.771c14.875-7.368 20.938-25.417 13.53-40.272z"/><path d="M499.73 247.7c-12.301-9-29.401-7.2-39.6 3.9l-82 100.8c-5.7 6-16.5 9.6-22.2 9.6h-69.901c-8.401 0-15-6.599-15-15s6.599-15 15-15h60c16.5 0 30-13.5 30-30s-13.5-30-30-30h-78.6c-7.476 0-11.204-4.741-17.1-9.901-23.209-20.885-57.949-30.947-93.119-22.795-19.528 4.526-32.697 12.415-46.053 22.993l-.445-.361-21.696 19.094L174.28 452h171.749c28.2 0 55.201-13.5 72.001-36l87.999-126c9.9-13.201 7.2-32.399-6.299-42.3z"/></svg>