<svg xmlns="http://www.w3.org/2000/svg" height="732" width="1061.333"><defs><clipPath id="a" clipPathUnits="userSpaceOnUse"><path d="M0 549h796V0H0z"/></clipPath></defs><g clip-path="url(#a)" transform="matrix(1.33333 0 0 -1.33333 0 732)"><path d="M624.273 299.854c-6.93-5.642-14.041-11.212-19.244-18.517-8.811-12.369-20.465-21.754-31.873-31.382-10.374-8.755-22.502-13.882-36.031-15.548-4.066-.5-8.278-2.69-11.123 2.91-1.315 2.587-4.41 1.03-6.56.026-5.838-2.724-11.605-5.602-17.286-8.364-1.55 1.387-.943 2.882-.953 4.258-.06 8.552-3.044 10.348-10.646 6.264-2.33-1.25-4.506-2.795-6.708-4.273-4.975-3.338-9.923-6.717-16.167-10.95.776 2.724 1.052 3.619 1.284 4.524.899 3.497 4.553 7.369.074 10.413-4.038 2.744-6.564-1.63-9.256-3.562-7.496-5.386-14.24-11.856-24.561-17.001 2.616 4.658 4.385 7.449 5.8 10.408 2.38 4.974 8.908 10.165 4.297 15.413-4.261 4.852-10.826.322-16.214-1.28-7.963-2.367-14.806-7.355-23.882-11.352 7.006 14.944 13.786 27.876 23.89 38.817 1.947 2.108 4.27 4.638.758 7.286-2.973 2.24-4.7-.105-6.575-2.147-10.435-11.374-20.784-22.836-31.491-33.95-7.7-7.995-16.247-15.08-25.443-21.364-3.974-2.715-5.756-1.913-6.674 2.865-1.28 6.666-3.605 7.583-9.296 3.828-5.23-3.45-10.161-7.346-15.32-10.908-2.731-1.888-5.683-5.476-8.74-4.216-3.457 1.426-1.52 5.947-1.826 9.124-.583 6.04-3.392 7.67-8.62 4.452-4.07-2.503-7.797-5.563-11.677-8.377l-16.835-10.693c-.6 6.024 1.932 10.513 4.233 14.817 4.432 8.291 9.486 16.245 14.124 24.427 4.509 7.954 9.847 15.573 11.837 24.685 1.287 5.891-1.634 8.328-7.277 6.246-2.916-1.075-5.683-2.65-8.36-4.26-13.495-8.123-25.831-17.764-37.185-28.676-9.828-9.445-19.692-18.854-30.002-28.72 3.369 7.587 6.836 14.65 9.684 21.956 6.942 17.81 16.409 34.371 24.838 51.448 1.455 2.948 4.758 6.666 1.602 9.86-3.362 3.403-6.773-.425-9.737-1.917-11.87-5.972-23.202-12.906-34.153-20.425-42.303-29.049-80.623-62.894-117.88-98.022-1.863-1.758-3.28-4.923-6.555-4.037 16.284 23.173 32.492 46.27 48.732 69.345 21.94 31.176 46.696 60.333 66.812 92.815 8.78 14.18 16.75 28.796 21.346 44.966 6.423 22.601.756 39.83-16.664 51.644-9.088 6.164-19.147 8.813-30 9.224-18.633.706-35.661-5.29-52.335-12.53-9.06-3.934-18.056-8.14-25.52-14.9-1.565-1.418-2.851-3.213-1.507-4.997 1.802-2.392 3.446.017 4.757 1.051 8.642 6.818 18.758 10.931 28.66 15.275 14.46 6.344 29.506 10.594 45.583 9.914 33.883-1.436 51-26.293 40.106-58.202-6.614-19.368-17.284-36.564-28.44-53.49-18.475-28.035-40.048-53.819-59.242-81.336-27.61-39.58-54.631-79.613-87.587-115.128-1.677-1.805-3.696-3.803-1.514-6.199 2.175-2.387 4.479-.49 6.43.861a18.797 18.797 0 0 1 3.73 3.405c10.183 12.287 21.424 23.566 32.759 34.771 43.154 42.66 88.174 83.09 139.02 116.561 7.7 5.068 15.589 9.88 25.517 13.97-1.455-3.335-2.26-5.287-3.147-7.2-4.868-10.5-11.18-20.25-15.508-31.056-8.435-21.05-17.885-41.648-29.027-61.433-1.371-2.438-4.005-5.197-.265-7.407 3.467-2.049 4.983 1.114 6.7 3.513 17.656 24.693 38.763 46.157 61.976 65.582 7.778 6.51 15.952 12.59 26.788 17.087-3.574-9.26-7.543-16.38-11.85-23.37-8.857-14.383-17.623-28.836-21.758-45.488-.634-2.554-1.688-5.165.88-7.349 2.79-2.374 4.895-.447 7.038 1.124 7.384 5.413 14.758 10.841 22.136 16.263l8.434 5.468c5.163-15.236 10.289-16.662 23.235-6.724 3.248 2.493 6.46 5.037 9.666 7.586 2.185 1.737 3.59 2.497 5.378-.972 3.999-7.762 7.612-8.645 14.909-3.71 9.425 6.373 17.332 14.575 25.556 22.372 2.047 1.94 4.042 3.932 6.06 5.901-1.665-6.403-4.013-11.916-6.45-17.389-1.244-2.793-.967-5.346 1.566-7.035 2.373-1.582 4.499-.336 6.482 1.394 3.085 2.691 6.234 5.332 9.532 7.754 7.496 5.502 15.578 9.805 25.626 12.522-3.34-6.802-6.31-12.29-8.741-18.008-1.516-3.565-2.621-7.993.67-10.873 3.718-3.25 7.242.064 10.345 2.187 6.37 4.358 12.6 8.92 19.589 13.897-.161-2.719-.362-4.144-.303-5.559.11-2.655.139-5.384 3.146-6.747 2.933-1.332 5.152.204 7.276 1.817 2.302 1.75 4.367 3.816 6.707 5.51 5.322 3.847 10.008 8.71 16.502 11.138 1.73-13.104 5.772-14.912 16.543-7.87 1.21.791 2.39 1.637 3.63 2.382 3.828 2.301 7.478 5.435 11.475-.17 1.369-1.92 4.367-1.757 6.83-1.403 19.066 2.735 36.455 9.093 50.297 23.183 2.818 2.87 5.587 5.847 10.162 8.242-.866-5.828-1.64-10.729-2.311-15.643-.601-4.392-.227-8.699 1.905-12.66 1-1.859 2.744-2.832 4.867-2.009 1.98.77 1.77 2.384 1.423 4.215-3.514 18.438 2.228 34.168 14.587 47.693 5.362 5.87 11.26 11.254 17.016 16.755 1.74 1.664 4.427 2.984 1.949 5.727-2.023 2.238-4.372 1.336-6.435-.343M686.169 252.001c-8.142-8.447-15.83-17.487-27.383-21.926-1.301 11.044 10.508 25.115 25.599 30.806 2.39-1.113-2.536-4.622 1.72-5.453 2.038-.399 1.106-2.346.064-3.427m57.478-5.076c-1.404 3.378-4.528 1.144-6.952.343-2.237-.743-4.68-2.245-6.641.22-2.131 2.679-.247 5.071 1.25 7.2 3.187 4.531 6.603 8.9 9.829 13.404 1.336 1.865 2.126 4.159.062 5.857-2.322 1.91-4.581.849-6.191-1.346-2.704-3.687-5.292-7.458-7.907-11.21-7.651-10.975-18.437-17.561-30.931-22.282 1.42 5.592 3.917 10.423 5.815 15.479 1.338 3.564 5.205 7.919.876 11.112-4.56 3.364-5.876-3.478-9.96-4.793-1.391 6.061-4.314 9.591-10.788 7.814-11.982-3.291-29.605-23.768-30.932-35.967-.411-3.773.052-7.41 3.503-9.66 3.323-2.166 6.407-.558 9.445 1.182 9.267 5.31 17.217 12.211 24.845 21.394-.307-5.76-2.277-10.833 2.448-13.726 4.809-2.944 9.385-.188 13.543 2.216 4.579 2.649 8.854 5.818 13.346 8.623 1.423.889 2.91 3.013 4.812.343 4.494-6.315 10.159-3.941 15.589-1.754 2.452.987 6.515 1.761 4.939 5.551"/></g></svg>